<?xml version="1.0" encoding="UTF-8" standalone="no"?><!DOCTYPE svg PUBLIC "-//W3C//DTD SVG 1.1//EN" "http://www.w3.org/Graphics/SVG/1.1/DTD/svg11.dtd"><svg width="100%" height="100%" viewBox="0 0 56 5" version="1.1" xmlns="http://www.w3.org/2000/svg" xmlns:xlink="http://www.w3.org/1999/xlink" xml:space="preserve" xmlns:serif="http://www.serif.com/" style="fill-rule:evenodd;clip-rule:evenodd;stroke-linejoin:round;stroke-miterlimit:2;"><g><path d="M9.448,0.309c-0.062,0.049 -0.062,0.129 0,0.179l1.905,1.517l-1.905,1.518c-0.062,0.049 -0.062,0.129 0,0.179c0.062,0.049 0.163,0.049 0.225,0l1.984,-1.581c0,0 0.084,-0.066 0.084,-0.116c0,-0.046 -0.084,-0.115 -0.084,-0.115l-1.984,-1.581c-0.062,-0.05 -0.163,-0.05 -0.225,0Z" style="fill-rule:nonzero;stroke:#000;stroke-width:0.5px;"/><path d="M26.743,0.309c-0.063,0.049 -0.063,0.129 0,0.179l1.905,1.517l-1.905,1.518c-0.063,0.049 -0.063,0.129 0,0.179c0.062,0.049 0.162,0.049 0.224,0l1.985,-1.581c0,0 0.084,-0.066 0.084,-0.116c0,-0.046 -0.084,-0.115 -0.084,-0.115l-1.985,-1.581c-0.062,-0.05 -0.162,-0.05 -0.224,0Z" style="fill-rule:nonzero;stroke:#000;stroke-width:0.5px;"/><path d="M44.037,0.309c-0.062,0.049 -0.062,0.129 0,0.179l1.905,1.517l-1.905,1.518c-0.062,0.049 -0.062,0.129 0,0.179c0.062,0.049 0.163,0.049 0.225,0l1.984,-1.581c0,0 0.085,-0.066 0.085,-0.116c0,-0.046 -0.085,-0.115 -0.085,-0.115l-1.984,-1.581c-0.062,-0.05 -0.163,-0.05 -0.225,0Z" style="fill-rule:nonzero;stroke:#000;stroke-width:0.5px;"/><path d="M52.684,0.309c-0.062,0.049 -0.062,0.129 0,0.179l1.906,1.517l-1.906,1.518c-0.062,0.049 -0.062,0.129 0,0.179c0.063,0.049 0.163,0.049 0.225,0l1.985,-1.581c0,0 0.084,-0.066 0.084,-0.116c0,-0.046 -0.084,-0.115 -0.084,-0.115l-1.985,-1.581c-0.062,-0.05 -0.162,-0.05 -0.225,0Z" style="fill-rule:nonzero;stroke:#000;stroke-width:0.5px;"/><rect x="0.086" y="0.272" width="3.467" height="3.467"/><path d="M3.553,0.272l-3.467,0l0,3.467l3.467,0l0,-3.467Zm-2.967,0.5l0,2.467l2.467,0l0,-2.467l-2.467,0Z"/><path d="M18.095,0.309c-0.062,0.049 -0.062,0.129 0,0.179l1.905,1.517l-1.905,1.518c-0.062,0.049 -0.062,0.129 0,0.179c0.062,0.049 0.163,0.049 0.225,0l1.984,-1.581c0,0 0.085,-0.066 0.085,-0.116c0,-0.046 -0.085,-0.115 -0.085,-0.115l-1.984,-1.581c-0.062,-0.05 -0.163,-0.05 -0.225,0Z" style="fill-rule:nonzero;stroke:#000;stroke-width:0.5px;"/><path d="M35.39,0.309c-0.062,0.049 -0.062,0.129 0,0.179l1.905,1.517l-1.905,1.518c-0.062,0.049 -0.062,0.129 0,0.179c0.062,0.049 0.162,0.049 0.225,0l1.984,-1.581c0,0 0.084,-0.066 0.084,-0.116c0,-0.046 -0.084,-0.115 -0.084,-0.115l-1.984,-1.581c-0.063,-0.05 -0.163,-0.05 -0.225,0Z" style="fill-rule:nonzero;stroke:#000;stroke-width:0.5px;"/></g></svg>