<?xml version="1.0" encoding="UTF-8" standalone="no"?><!DOCTYPE svg PUBLIC "-//W3C//DTD SVG 1.1//EN" "http://www.w3.org/Graphics/SVG/1.1/DTD/svg11.dtd"><svg width="100%" height="100%" viewBox="0 0 12 15" version="1.1" xmlns="http://www.w3.org/2000/svg" xmlns:xlink="http://www.w3.org/1999/xlink" xml:space="preserve" xmlns:serif="http://www.serif.com/" style="fill-rule:evenodd;clip-rule:evenodd;stroke-linecap:square;stroke-linejoin:round;stroke-miterlimit:1.5;"><g><path d="M3.743,7.656c0,0 2.418,-3.604 2.402,-5.137c-0.013,-1.354 -1.123,-2.443 -2.477,-2.429c-1.354,0.014 -2.443,1.124 -2.429,2.478c0.015,1.534 2.504,5.088 2.504,5.088Z" style="fill:#ff9947;"/><circle cx="4.452" cy="9.864" r="4.234" style="fill:url(#_Linear1);"/><clipPath id="_clip2"><circle cx="4.452" cy="9.864" r="4.234"/></clipPath><g clip-path="url(#_clip2)"><path d="M3.692,14.031l4.15,-6.704" style="fill:none;stroke:#808080;stroke-opacity:0.5;stroke-width:0.5px;"/><path d="M4.537,14.876l4.15,-6.704" style="fill:none;stroke:#808080;stroke-opacity:0.5;stroke-width:0.5px;"/></g><path d="M5.734,7.327c0,0 4.226,-0.983 5.262,-2.114c0.915,-0.998 0.846,-2.551 -0.152,-3.466c-0.999,-0.914 -2.552,-0.846 -3.466,0.152c-1.036,1.132 -1.644,5.428 -1.644,5.428Z" style="fill:#ff9947;"/></g><defs><linearGradient id="_Linear1" x1="0" y1="0" x2="1" y2="0" gradientUnits="userSpaceOnUse" gradientTransform="matrix(11.9956,1.3876,-1.3876,11.9956,0.218092,9.8644)"><stop offset="0" style="stop-color:#ff8d47;stop-opacity:1"/><stop offset="1" style="stop-color:#ffda2e;stop-opacity:1"/></linearGradient></defs></svg>