<?xml version="1.0" encoding="UTF-8" standalone="no"?>
<!DOCTYPE svg PUBLIC "-//W3C//DTD SVG 1.1//EN" "http://www.w3.org/Graphics/SVG/1.1/DTD/svg11.dtd">
<svg width="100%" height="100%" viewBox="0 0 105 105" version="1.1" xmlns="http://www.w3.org/2000/svg" xmlns:xlink="http://www.w3.org/1999/xlink" xml:space="preserve" xmlns:serif="http://www.serif.com/" style="fill-rule:evenodd;clip-rule:evenodd;stroke-linecap:round;stroke-linejoin:round;stroke-miterlimit:1.5;">
    <g transform="matrix(1,0,0,1,-3980,-3452)">
        <g transform="matrix(1.02213,0,0,0.962546,91.2056,92.8851)">
            <g transform="matrix(0.781417,0,0,0.228464,1884.5,3393.36)">
                <g transform="matrix(0.163708,0,0,0.594589,2322.35,619.092)">
                    <path d="M1304.18,358.325C1306.45,365.797 1307.67,373.725 1307.67,381.935C1307.67,426.798 1271.25,463.222 1226.38,463.222C1181.52,463.222 1145.1,426.798 1145.1,381.935C1145.1,373.725 1146.32,365.797 1148.59,358.325L1226.38,67.973L1304.18,358.325Z" style="fill:rgb(255,153,0);stroke:black;stroke-width:7.65px;"/>
                </g>
                <g transform="matrix(0.141775,-0.297294,0.0818539,0.514929,2343.69,989.104)">
                    <path d="M1304.18,358.325C1306.45,365.797 1307.67,373.725 1307.67,381.935C1307.67,426.798 1271.25,463.222 1226.38,463.222C1181.52,463.222 1145.1,426.798 1145.1,381.935C1145.1,373.725 1146.32,365.797 1148.59,358.325L1226.38,67.973L1304.18,358.325Z" style="fill:rgb(255,206,103);stroke:black;stroke-width:7.65px;"/>
                </g>
                <g transform="matrix(0.0818539,-0.514929,0.141775,0.297294,2413.1,1270.8)">
                    <path d="M1304.18,358.325C1306.45,365.797 1307.67,373.725 1307.67,381.935C1307.67,426.798 1271.25,463.222 1226.38,463.222C1181.52,463.222 1145.1,426.798 1145.1,381.935C1145.1,373.725 1146.32,365.797 1148.59,358.325L1226.38,67.973L1304.18,358.325Z" style="fill:rgb(255,153,0);stroke:black;stroke-width:7.65px;"/>
                </g>
                <g transform="matrix(1.00242e-17,-0.594589,0.163708,3.64081e-17,2511.99,1388.7)">
                    <path d="M1304.18,358.325C1306.45,365.797 1307.67,373.725 1307.67,381.935C1307.67,426.798 1271.25,463.222 1226.38,463.222C1181.52,463.222 1145.1,426.798 1145.1,381.935C1145.1,373.725 1146.32,365.797 1148.59,358.325L1226.38,67.973L1304.18,358.325Z" style="fill:rgb(255,206,103);stroke:black;stroke-width:7.65px;"/>
                </g>
                <g transform="matrix(-0.0818539,-0.514929,0.141775,-0.297294,2613.87,1311.22)">
                    <path d="M1304.18,358.325C1306.45,365.797 1307.67,373.725 1307.67,381.935C1307.67,426.798 1271.25,463.222 1226.38,463.222C1181.52,463.222 1145.1,426.798 1145.1,381.935C1145.1,373.725 1146.32,365.797 1148.59,358.325L1226.38,67.973L1304.18,358.325Z" style="fill:rgb(255,153,0);stroke:black;stroke-width:7.65px;"/>
                </g>
                <g transform="matrix(-0.141775,-0.297294,0.0818539,-0.514929,2691.43,1059.11)">
                    <path d="M1304.18,358.325C1306.45,365.797 1307.67,373.725 1307.67,381.935C1307.67,426.798 1271.25,463.222 1226.38,463.222C1181.52,463.222 1145.1,426.798 1145.1,381.935C1145.1,373.725 1146.32,365.797 1148.59,358.325L1226.38,67.973L1304.18,358.325Z" style="fill:rgb(255,206,103);stroke:black;stroke-width:7.65px;"/>
                </g>
                <g transform="matrix(-0.163708,-7.28161e-17,2.00484e-17,-0.594589,2723.89,699.925)">
                    <path d="M1304.18,358.325C1306.45,365.797 1307.67,373.725 1307.67,381.935C1307.67,426.798 1271.25,463.222 1226.38,463.222C1181.52,463.222 1145.1,426.798 1145.1,381.935C1145.1,373.725 1146.32,365.797 1148.59,358.325L1226.38,67.973L1304.18,358.325Z" style="fill:rgb(255,153,0);stroke:black;stroke-width:7.65px;"/>
                </g>
                <g transform="matrix(-0.141775,0.297294,-0.0818539,-0.514929,2702.56,329.913)">
                    <path d="M1304.18,358.325C1306.45,365.797 1307.67,373.725 1307.67,381.935C1307.67,426.798 1271.25,463.222 1226.38,463.222C1181.52,463.222 1145.1,426.798 1145.1,381.935C1145.1,373.725 1146.32,365.797 1148.59,358.325L1226.38,67.973L1304.18,358.325Z" style="fill:rgb(255,206,103);stroke:black;stroke-width:7.65px;"/>
                </g>
                <g transform="matrix(-0.0818539,0.514929,-0.141775,-0.297294,2633.14,48.2159)">
                    <path d="M1304.18,358.325C1306.45,365.797 1307.67,373.725 1307.67,381.935C1307.67,426.798 1271.25,463.222 1226.38,463.222C1181.52,463.222 1145.1,426.798 1145.1,381.935C1145.1,373.725 1146.32,365.797 1148.59,358.325L1226.38,67.973L1304.18,358.325Z" style="fill:rgb(255,153,0);stroke:black;stroke-width:7.65px;"/>
                </g>
                <g transform="matrix(1.00242e-17,0.594589,-0.163708,3.64081e-17,2534.25,-69.6856)">
                    <path d="M1304.18,358.325C1306.45,365.797 1307.67,373.725 1307.67,381.935C1307.67,426.798 1271.25,463.222 1226.38,463.222C1181.52,463.222 1145.1,426.798 1145.1,381.935C1145.1,373.725 1146.32,365.797 1148.59,358.325L1226.38,67.973L1304.18,358.325Z" style="fill:rgb(255,206,103);stroke:black;stroke-width:7.65px;"/>
                </g>
                <g transform="matrix(0.0818539,0.514929,-0.141775,0.297294,2432.37,7.79982)">
                    <path d="M1304.18,358.325C1306.45,365.797 1307.67,373.725 1307.67,381.935C1307.67,426.798 1271.25,463.222 1226.38,463.222C1181.52,463.222 1145.1,426.798 1145.1,381.935C1145.1,373.725 1146.32,365.797 1148.59,358.325L1226.38,67.973L1304.18,358.325Z" style="fill:rgb(255,153,0);stroke:black;stroke-width:7.65px;"/>
                </g>
                <g transform="matrix(0.141775,0.297294,-0.0818539,0.514929,2354.81,259.91)">
                    <path d="M1304.18,358.325C1306.45,365.797 1307.67,373.725 1307.67,381.935C1307.67,426.798 1271.25,463.222 1226.38,463.222C1181.52,463.222 1145.1,426.798 1145.1,381.935C1145.1,373.725 1146.32,365.797 1148.59,358.325L1226.38,67.973L1304.18,358.325Z" style="fill:rgb(255,206,103);stroke:black;stroke-width:7.65px;"/>
                </g>
                <g transform="matrix(0.23272,0,0,0.845242,2260.55,397.695)">
                    <circle cx="1128.26" cy="309.749" r="109.059" style="fill:rgb(255,206,103);stroke:black;stroke-width:11.21px;"/>
                </g>
                <g transform="matrix(-0.479604,-2.13325e-16,3.74154e-17,-1.10965,3048.9,1045.77)">
                    <path d="M1127.99,340.547C1131.25,334.902 1124.65,312.941 1122.11,307.788C1116.23,295.864 1104.36,284.85 1095.83,284.85C1087.27,284.85 1077.02,296.597 1072.29,304.778C1064.28,318.642 1063.68,340.547 1063.68,340.547C1063.68,340.547 1085.11,348.091 1095.83,348.091C1106.55,348.091 1127.99,340.547 1127.99,340.547Z" style="fill:rgb(235,99,99);stroke:rgb(255,117,15);stroke-width:6.49px;"/>
                </g>
                <g transform="matrix(0.30552,0,0,1.10965,2187.56,355.351)">
                    <circle cx="1062.86" cy="233.891" r="8.143" style="fill:url(#_Linear1);"/>
                </g>
                <g transform="matrix(0.30552,0,0,1.10965,2207.47,355.351)">
                    <circle cx="1062.86" cy="233.891" r="8.143" style="fill:url(#_Linear2);"/>
                </g>
            </g>
        </g>
    </g>
    <defs>
        <linearGradient id="_Linear1" x1="0" y1="0" x2="1" y2="0" gradientUnits="userSpaceOnUse" gradientTransform="matrix(16.2861,0,0,16.2861,1054.72,233.891)"><stop offset="0" style="stop-color:rgb(182,139,248);stop-opacity:1"/><stop offset="1" style="stop-color:rgb(249,152,168);stop-opacity:1"/></linearGradient>
        <linearGradient id="_Linear2" x1="0" y1="0" x2="1" y2="0" gradientUnits="userSpaceOnUse" gradientTransform="matrix(16.2861,0,0,16.2861,1054.72,233.891)"><stop offset="0" style="stop-color:rgb(182,139,248);stop-opacity:1"/><stop offset="1" style="stop-color:rgb(249,152,168);stop-opacity:1"/></linearGradient>
    </defs>
</svg>
