<?xml version="1.0" encoding="UTF-8" standalone="no"?><!DOCTYPE svg PUBLIC "-//W3C//DTD SVG 1.1//EN" "http://www.w3.org/Graphics/SVG/1.1/DTD/svg11.dtd"><svg width="100%" height="100%" viewBox="0 0 63 15" version="1.1" xmlns="http://www.w3.org/2000/svg" xmlns:xlink="http://www.w3.org/1999/xlink" xml:space="preserve" xmlns:serif="http://www.serif.com/" style="fill-rule:evenodd;clip-rule:evenodd;stroke-linejoin:round;stroke-miterlimit:2;"><g><path d="M61.987,3.74c0,-2.04 -1.656,-3.697 -3.697,-3.697l-54.57,0c-2.041,0 -3.697,1.657 -3.697,3.697l0,7.394c0,2.041 1.656,3.698 3.697,3.698l54.57,0c2.041,0 3.697,-1.657 3.697,-3.698l0,-7.394Zm-1,0l0,7.394c0,1.489 -1.208,2.698 -2.697,2.698c0,0 -54.57,0 -54.57,0c-1.489,0 -2.697,-1.209 -2.697,-2.698c0,0 0,-7.394 0,-7.394c0,-1.488 1.208,-2.697 2.697,-2.697c0,0 54.57,0 54.57,0c1.489,0 2.697,1.209 2.697,2.697Z"/><text x="6.482px" y="9.614px" style="font-family:'ArialRoundedMTBold', 'Arial Rounded MT Bold', sans-serif;font-size:8.404px;">Launc<tspan x="31.489px 36.565px " y="9.614px 9.614px ">h </tspan>App</text></g></svg>